<svg width="78" height="75" viewBox="0 0 78 75" fill="none" xmlns="http://www.w3.org/2000/svg">
<path d="M17.9855 61V23.3575H5.57454V16.9H37.4525V23.3575H25.0415V61H17.9855Z" fill="#5FCDD9"/>
<path d="M61.9395 62.945C58.9785 62.945 56.091 62.5355 53.277 61.7165C50.463 60.8765 48.09 59.6795 46.158 58.1255L49.119 53.495C50.211 54.398 51.45 55.1645 52.836 55.7945C54.222 56.4245 55.692 56.9075 57.246 57.2435C58.8 57.5795 60.375 57.7475 61.971 57.7475C65.1 57.7475 67.6095 57.1385 69.4995 55.9205C71.4105 54.7025 72.366 52.9175 72.366 50.5655C72.366 48.8435 71.7255 47.384 70.4445 46.187C69.1845 44.99 66.822 43.898 63.357 42.911L58.569 41.4935C54.537 40.3175 51.5865 38.774 49.7175 36.863C47.8485 34.952 46.914 32.558 46.914 29.681C46.914 27.749 47.3025 26.006 48.0795 24.452C48.8565 22.898 49.9485 21.5645 51.3555 20.4515C52.7625 19.3175 54.4215 18.4565 56.3325 17.8685C58.2645 17.2595 60.375 16.955 62.664 16.955C65.499 16.955 68.1345 17.375 70.5705 18.215C73.0275 19.034 75.054 20.1365 76.65 21.5225L73.5945 25.964C72.6495 25.166 71.568 24.4835 70.35 23.9165C69.132 23.3285 67.83 22.8875 66.444 22.5935C65.058 22.2785 63.651 22.121 62.223 22.121C60.312 22.121 58.6215 22.4045 57.1515 22.9715C55.7025 23.5175 54.5685 24.3365 53.7495 25.4285C52.9515 26.4995 52.5525 27.8015 52.5525 29.3345C52.5525 30.4475 52.815 31.424 53.34 32.264C53.865 33.083 54.7785 33.839 56.0805 34.532C57.3825 35.225 59.178 35.9075 61.467 36.5795L66.57 38.0915C70.497 39.2465 73.3845 40.769 75.2325 42.659C77.0805 44.528 78.0045 46.985 78.0045 50.03C78.0045 52.592 77.3745 54.8495 76.1145 56.8025C74.8755 58.7345 73.059 60.2465 70.665 61.3385C68.271 62.4095 65.3625 62.945 61.9395 62.945Z" fill="#5FCDD9"/>
</svg>
