<svg width="414" height="46" viewBox="0 0 414 46" fill="none" xmlns="http://www.w3.org/2000/svg">
<path d="M-7.74115e-06 45.108V1.00803H3.59099V41.958H22.743V45.108H-7.74115e-06ZM38.06 13.104C38.06 8.82003 39.257 5.56503 41.651 3.33903C44.045 1.11303 47.321 3.09348e-05 51.479 3.09348e-05C55.637 3.09348e-05 58.871 1.17603 61.181 3.52803C63.491 5.83803 64.646 9.05103 64.646 13.167V33.39C64.646 35.952 64.079 38.157 62.945 40.005C61.853 41.853 60.299 43.281 58.283 44.289C56.309 45.297 54.02 45.801 51.416 45.801C48.938 45.801 46.691 45.339 44.675 44.415C42.659 43.491 41.042 42.105 39.824 40.257C38.648 38.409 38.06 36.12 38.06 33.39V13.104ZM41.651 33.327C41.651 35.343 42.071 37.023 42.911 38.367C43.751 39.711 44.885 40.74 46.313 41.454C47.783 42.126 49.442 42.462 51.29 42.462C53.222 42.462 54.923 42.147 56.393 41.517C57.863 40.845 59.018 39.837 59.858 38.493C60.698 37.107 61.118 35.385 61.118 33.327V12.537C61.118 10.479 60.719 8.77803 59.921 7.43403C59.123 6.09003 57.989 5.08203 56.519 4.41003C55.049 3.69603 53.306 3.33903 51.29 3.33903C49.358 3.33903 47.657 3.69603 46.187 4.41003C44.759 5.08203 43.646 6.09003 42.848 7.43403C42.05 8.77803 41.651 10.479 41.651 12.537V33.327ZM110.142 45.108H106.425L101.322 29.673H87.0214L82.0444 45.108H78.2644L92.4394 1.00803H95.7784L110.142 45.108ZM87.9664 26.208H100.377L94.0774 6.42603L87.9664 26.208ZM137.93 1.00803C141.122 1.00803 143.789 1.59603 145.931 2.77203C148.115 3.94803 149.753 5.60703 150.845 7.74903C151.979 9.84903 152.546 12.327 152.546 15.183V32.508C152.546 35.28 152.042 37.611 151.034 39.501C150.068 41.349 148.598 42.756 146.624 43.722C144.65 44.646 142.172 45.108 139.19 45.108H126.023V1.00803H137.93ZM138.119 41.958C139.967 41.958 141.563 41.769 142.907 41.391C144.251 41.013 145.364 40.467 146.246 39.753C147.17 38.997 147.842 38.073 148.262 36.981C148.724 35.847 148.955 34.566 148.955 33.138V14.238C148.955 12.432 148.598 10.773 147.884 9.26103C147.17 7.70703 146.057 6.46803 144.545 5.54403C143.033 4.62003 141.038 4.15803 138.56 4.15803H129.614V41.958H138.119ZM209.092 4.15803V45.108H205.627V4.15803H194.854V1.00803H220.18V4.15803H209.092ZM260.701 45.108H256.984L251.881 29.673H237.58L232.603 45.108H228.823L242.998 1.00803H246.337L260.701 45.108ZM238.525 26.208H250.936L244.636 6.42603L238.525 26.208ZM292.07 1.00803L298.874 40.761L307.757 1.00803H311.474L301.205 45.108H295.913L289.676 7.37103L283.439 45.108H278.084L267.626 1.00803H271.469L280.415 40.761L287.156 1.00803H292.07ZM348.737 1.00803V4.34703H331.286V19.152H343.319L341.87 22.617H331.286V45.108H327.695V1.00803H348.737ZM364.258 4.09503V1.00803H372.07V45.108H368.542V4.22103L364.258 4.09503ZM392.046 21.987L406.095 1.00803H410.19L397.338 20.034L413.466 45.108H409.245L395.007 23.373L392.046 28.161V45.108H388.455V1.00803H392.046V21.987Z" fill="#FF4F00"/>
</svg>
