<svg width="260" height="103" viewBox="0 0 260 103" fill="none" xmlns="http://www.w3.org/2000/svg">
<path d="M1.63799 95.3058C0.545988 93.9618 -1.21836e-05 92.7648 -1.21836e-05 91.7148C-1.21836e-05 90.6228 0.902988 89.1948 2.70899 87.4308C3.75899 86.4228 4.87199 85.9188 6.04799 85.9188C7.22399 85.9188 8.86199 86.9688 10.962 89.0688C11.55 89.7828 12.39 90.4758 13.482 91.1478C14.574 91.7778 15.582 92.0928 16.506 92.0928C20.412 92.0928 22.365 90.4968 22.365 87.3048C22.365 86.3388 21.819 85.5408 20.727 84.9108C19.677 84.2388 18.354 83.7558 16.758 83.4618C15.162 83.1678 13.44 82.7058 11.592 82.0758C9.74399 81.4038 8.02199 80.6268 6.42599 79.7448C4.82999 78.8628 3.48599 77.4768 2.39399 75.5868C1.34399 73.6548 0.818988 71.3448 0.818988 68.6568C0.818988 64.9608 2.18399 61.7478 4.91399 59.0178C7.68599 56.2458 11.445 54.8598 16.191 54.8598C18.711 54.8598 21 55.1958 23.058 55.8678C25.158 56.4978 26.607 57.1488 27.405 57.8208L28.98 59.0178C30.282 60.2358 30.933 61.2648 30.933 62.1048C30.933 62.9448 30.429 64.0998 29.421 65.5698C27.993 67.6698 26.523 68.7198 25.011 68.7198C24.129 68.7198 23.037 68.2998 21.735 67.4598C21.609 67.3758 21.357 67.1658 20.979 66.8298C20.643 66.4938 20.328 66.2208 20.034 66.0108C19.152 65.4648 18.018 65.1918 16.632 65.1918C15.288 65.1918 14.154 65.5278 13.23 66.1998C12.348 66.8298 11.907 67.7328 11.907 68.9088C11.907 70.0428 12.432 70.9668 13.482 71.6808C14.574 72.3948 15.918 72.8778 17.514 73.1298C19.11 73.3818 20.853 73.7808 22.743 74.3268C24.633 74.8308 26.376 75.4608 27.972 76.2168C29.568 76.9728 30.891 78.2958 31.941 80.1858C33.033 82.0338 33.579 84.3228 33.579 87.0528C33.579 89.7828 33.033 92.1978 31.941 94.2978C30.849 96.3558 29.421 97.9518 27.657 99.0858C24.255 101.312 20.622 102.425 16.758 102.425C14.784 102.425 12.915 102.194 11.151 101.732C9.38699 101.228 7.95899 100.619 6.86699 99.9048C4.64099 98.5608 3.08699 97.2588 2.20499 95.9988L1.63799 95.3058ZM66.2135 57.3168C66.5495 56.6868 67.1165 56.2458 67.9145 55.9938C68.7125 55.7418 69.7205 55.6158 70.9385 55.6158C72.1565 55.6158 73.1225 55.7208 73.8365 55.9308C74.5505 56.1408 75.0965 56.3928 75.4745 56.6868C75.8525 56.9808 76.1465 57.4008 76.3565 57.9468C76.5665 58.6608 76.6715 59.7528 76.6715 61.2228V96.1878C76.6715 97.1538 76.6295 97.8888 76.5455 98.3928C76.5035 98.8548 76.3145 99.4008 75.9785 100.031C75.3905 101.165 73.7525 101.732 71.0645 101.732C68.1245 101.732 66.4025 100.955 65.8985 99.4008C65.6465 98.6868 65.5205 97.5948 65.5205 96.1248V83.3358H48.8255V96.1878C48.8255 97.1538 48.7835 97.8888 48.6995 98.3928C48.6575 98.8548 48.4685 99.4008 48.1325 100.031C47.5445 101.165 45.9065 101.732 43.2185 101.732C40.2785 101.732 38.5565 100.955 38.0525 99.4008C37.8005 98.6868 37.6745 97.5948 37.6745 96.1248V61.1598C37.6745 60.1938 37.6955 59.4798 37.7375 59.0178C37.8215 58.5138 38.0315 57.9468 38.3675 57.3168C38.9555 56.1828 40.5935 55.6158 43.2815 55.6158C46.2215 55.6158 47.9645 56.3928 48.5105 57.9468C48.7205 58.6608 48.8255 59.7528 48.8255 61.2228V74.0748H65.5205V61.1598C65.5205 60.1938 65.5415 59.4798 65.5835 59.0178C65.6675 58.5138 65.8775 57.9468 66.2135 57.3168ZM108.374 58.8918L125.384 94.0458C126.098 95.4738 126.455 96.5448 126.455 97.2588C126.455 98.7708 125.237 100.136 122.801 101.354C121.373 102.068 120.239 102.425 119.399 102.425C118.601 102.425 117.929 102.236 117.383 101.858C116.879 101.48 116.501 101.081 116.249 100.661C116.039 100.241 115.724 99.6108 115.304 98.7708L112.028 91.9668H94.5773L91.3013 98.7708C90.8813 99.6108 90.5453 100.22 90.2933 100.598C90.0833 100.976 89.7053 101.375 89.1593 101.795C88.6553 102.173 87.9833 102.362 87.1433 102.362C86.3453 102.362 85.2323 102.005 83.8043 101.291C81.3683 100.115 80.1503 98.7708 80.1503 97.2588C80.1503 96.5448 80.5073 95.4738 81.2213 94.0458L98.2313 58.8288C98.6933 57.8628 99.3863 57.0858 100.31 56.4978C101.276 55.9098 102.284 55.6158 103.334 55.6158C105.602 55.6158 107.282 56.7078 108.374 58.8918ZM103.271 74.0118L99.1133 82.6428H107.492L103.271 74.0118ZM162.784 77.0358C165.262 79.9758 166.501 83.2728 166.501 86.9268C166.417 91.1268 164.968 94.6548 162.154 97.5108C159.382 100.325 156.001 101.732 152.011 101.732H135.442C132.502 101.732 130.78 100.934 130.276 99.3378C130.024 98.6238 129.898 97.5318 129.898 96.0618V61.0968C129.898 60.0888 129.919 59.3538 129.961 58.8918C130.045 58.4298 130.255 57.8838 130.591 57.2538C131.179 56.1198 132.817 55.5528 135.505 55.5528H151.381C155.245 55.5528 158.479 56.8968 161.083 59.5848C163.813 62.3148 165.178 65.5908 165.178 69.4128C165.178 72.1848 164.38 74.7258 162.784 77.0358ZM155.35 86.2968C155.35 85.2888 155.224 84.4908 154.972 83.9028C154.762 83.3148 154.384 82.8948 153.838 82.6428C152.998 82.3068 151.822 82.1388 150.31 82.1388C148.798 82.1388 147.664 81.8448 146.908 81.2568C146.152 80.6688 145.774 79.4718 145.774 77.6658C145.774 75.8178 146.152 74.5998 146.908 74.0118C147.706 73.4238 149.008 73.1298 150.814 73.1298C152.494 73.1298 153.502 72.6888 153.838 71.8068C153.964 71.3448 154.027 70.5888 154.027 69.5388C154.027 68.4888 153.67 67.7538 152.956 67.3338C152.284 66.9138 151.255 66.7038 149.869 66.7038H141.049V90.5808H151.381C154.027 90.5808 155.35 89.1528 155.35 86.2968ZM197.276 58.8918L214.286 94.0458C215 95.4738 215.357 96.5448 215.357 97.2588C215.357 98.7708 214.139 100.136 211.703 101.354C210.275 102.068 209.141 102.425 208.301 102.425C207.503 102.425 206.831 102.236 206.285 101.858C205.781 101.48 205.403 101.081 205.151 100.661C204.941 100.241 204.626 99.6108 204.206 98.7708L200.93 91.9668H183.479L180.203 98.7708C179.783 99.6108 179.447 100.22 179.195 100.598C178.985 100.976 178.607 101.375 178.061 101.795C177.557 102.173 176.885 102.362 176.045 102.362C175.247 102.362 174.134 102.005 172.706 101.291C170.27 100.115 169.052 98.7708 169.052 97.2588C169.052 96.5448 169.409 95.4738 170.123 94.0458L187.133 58.8288C187.595 57.8628 188.288 57.0858 189.212 56.4978C190.178 55.9098 191.186 55.6158 192.236 55.6158C194.504 55.6158 196.184 56.7078 197.276 58.8918ZM192.173 74.0118L188.015 82.6428H196.394L192.173 74.0118ZM248.598 57.5688C249.018 56.8128 249.627 56.3088 250.425 56.0568C251.223 55.8048 252.21 55.6788 253.386 55.6788C254.604 55.6788 255.57 55.7838 256.284 55.9938C257.04 56.2038 257.586 56.4558 257.922 56.7498C258.3 57.0438 258.573 57.4848 258.741 58.0728C258.993 58.7448 259.119 59.8158 259.119 61.2858V96.2508C259.119 97.2588 259.077 97.9938 258.993 98.4558C258.951 98.9178 258.762 99.4638 258.426 100.094C257.838 101.228 256.2 101.795 253.512 101.795C251.874 101.795 250.74 101.669 250.11 101.417C249.48 101.165 248.955 100.766 248.535 100.22C239.085 87.6198 232.869 79.3878 229.887 75.5238V96.2508C229.887 97.2588 229.845 97.9938 229.761 98.4558C229.719 98.9178 229.53 99.4638 229.194 100.094C228.606 101.228 226.968 101.795 224.28 101.795C221.676 101.795 220.08 101.228 219.492 100.094C219.156 99.4638 218.946 98.8968 218.862 98.3928C218.82 97.8888 218.799 97.1538 218.799 96.1878V61.0338C218.799 59.4378 218.988 58.2828 219.366 57.5688C219.786 56.8128 220.395 56.3088 221.193 56.0568C221.991 55.8048 223.02 55.6788 224.28 55.6788C225.54 55.6788 226.527 55.8048 227.241 56.0568C227.997 56.2668 228.522 56.5188 228.816 56.8128C228.984 56.9388 229.467 57.4848 230.265 58.4508C239.127 70.5048 245.049 78.4638 248.031 82.3278V61.0338C248.031 59.4378 248.22 58.2828 248.598 57.5688Z" fill="#373737" fill-opacity="0.5"/>
<path d="M35.555 5.42807L22.0101 5.37133L21.8457 44.62L16.4278 44.5973L16.5922 5.34864L3.04728 5.2919L3.0676 0.44094L35.5753 0.577109L35.555 5.42807ZM43.5398 44.7109L58.8462 0.233584L64.9572 0.259182L79.9534 44.8634L73.9685 44.8383L70.2363 33.4196L53.0374 33.3475L49.2097 44.7346L43.5398 44.7109ZM54.1904 28.8163L69.1843 28.8791L61.785 5.53794L54.1904 28.8163ZM129.406 45.0705L123.736 45.0468L114.685 9.98056L105.214 44.9692L99.8589 44.9468L90.2155 0.868986L95.9492 0.704004L102.908 38.9745L112.385 2.53686L117.362 2.55771L126.407 39.0099L133.686 0.862076L139.418 1.07509L129.406 45.0705ZM155.143 45.1783L155.327 1.07873L183.173 1.19537L183.152 6.10933L160.788 6.01564L160.719 22.3325L180.123 22.4138L180.103 27.1387L160.699 27.0575L160.623 45.2013L155.143 45.1783ZM199.486 45.3641L199.671 1.26448L205.089 1.28717L204.904 45.3868L199.486 45.3641ZM257.265 46.2361C256.131 46.2314 254.977 46.0165 253.802 45.5916C252.67 45.1669 251.455 44.4688 250.157 43.4973C248.901 42.5261 247.457 41.26 245.826 39.6991L230.391 24.5774L230.304 45.4932L224.823 45.4702L225.007 1.3706L230.488 1.39356L230.42 17.6474L247.55 34.2253C248.888 35.5329 250.039 36.6088 251.001 37.4528C252.006 38.255 252.885 38.8887 253.639 39.3539C254.436 39.7772 255.148 40.0952 255.777 40.3078C256.407 40.4785 257.057 40.5652 257.729 40.568C257.813 40.5684 257.939 40.5689 258.107 40.5696C258.275 40.5703 258.422 40.5709 258.548 40.5714L258.525 46.1154C258.273 46.1563 258.042 46.1764 257.832 46.1755C257.622 46.2166 257.433 46.2368 257.265 46.2361ZM237.376 26.5596L233.924 23.3322C235.104 22.4971 236.389 21.5155 237.78 20.3873C239.17 19.2591 240.562 18.0259 241.953 16.6877C243.387 15.3497 244.8 13.8856 246.193 12.2954C247.586 10.6633 248.874 8.92564 250.058 7.08259C251.283 5.2397 252.363 3.27021 253.295 1.1741L257.508 3.27076C256.446 5.95434 255.134 8.44786 253.57 10.7513C252.049 13.055 250.381 15.19 248.566 17.1564C246.752 19.0808 244.876 20.837 242.937 22.4249C241.041 23.971 239.187 25.3492 237.376 26.5596Z" fill="black"/>
</svg>
